<?xml version="1.0" ?><svg height="60px" version="1.1" viewBox="0 0 60 60" width="60px" xmlns="http://www.w3.org/2000/svg" xmlns:sketch="http://www.bohemiancoding.com/sketch/ns" xmlns:xlink="http://www.w3.org/1999/xlink"><title/><desc/><defs/><g fill="none" fill-rule="evenodd" id="black" stroke="none" stroke-width="1"><g id="slice" transform="translate(-801.000000, 0.000000)"/><g fill="#000000" id="paypal" transform="translate(15.000000, 13.000000)"><path d="M29.6345892,8.92307692 C29.60164,12.556406 28.0000232,15.5315784 24.860539,17.7546703 C21.7848043,19.9328722 17.4820707,21.0399291 12.0712418,21.0447634 L10.8528382,21.0447634 C10.4366757,21.0447634 9.96034514,21.4073366 9.87224189,21.791319 L8.40170549,27.9005053 C8.08940454,29.2292499 6.73275771,30.2734608 5.31451024,30.2734608 L1.23310919,30.2734608 L1.19586229,30.4295399 C0.988855458,31.2893565 1.56689875,32 2.48661074,32 L6.74636716,32 C7.66751173,32 8.58006086,31.3073125 8.78706768,30.4295399 L10.2554552,24.3307128 C10.4510015,23.4778025 11.3614017,22.7719932 12.2846952,22.7719932 L13.5023824,22.7719932 C18.7119348,22.7671589 22.7532238,21.7395228 25.6570497,19.6828693 C28.5565779,17.6296688 30.006342,14.9093337 29.9998954,11.5446541 C30.0041931,10.5584549 29.8759778,9.69173218 29.6345892,8.92307692 Z M17.7826226,13.395019 C16.5584655,14.25878 14.8609038,14.6923077 12.6571476,14.6923077 L11.6611537,14.6923077 C10.7833401,14.6923077 10.229327,14.020274 10.423334,13.1960444 L11.646125,8.11362453 C11.8319345,7.29532463 12.7083819,6.61538462 13.5861955,6.62329089 L14.9148705,6.61538462 C16.4682932,6.61538462 17.6487304,6.87233869 18.4452523,7.38163484 C19.2301611,7.87775386 19.6291052,8.66113436 19.6147596,9.71530493 C19.6379858,11.3011728 19.013611,12.5292815 17.7826226,13.395019 Z M28.0337703,5.04674906 C27.5044347,4.03077149 26.7107895,3.20573006 25.6979606,2.58289776 C24.6471685,1.94456511 23.425184,1.50562334 22.0004904,1.24000368 C20.5672014,0.987770692 18.8932402,0.863767882 16.9721603,0.846153846 L8.08018152,0.852494899 C7.15617213,0.863767882 6.25078619,1.57607948 6.03733286,2.45044021 L0.0420161171,28.090135 C-0.164990638,28.967314 0.413052446,29.6923077 1.33276412,29.6923077 L5.59251903,29.6923077 C6.51366328,29.6923077 7.42621209,28.9856326 7.63321884,28.090135 L9.10160586,21.8681531 C9.29715203,20.9980197 10.207552,20.2779579 11.1308451,20.2779579 L12.3485319,20.2779579 C17.5580825,20.273026 21.5993701,19.2246386 24.5031949,17.1264547 C27.4027221,15.0317936 28.8524856,12.2565261 28.8460391,8.82390286 C28.8524856,7.31543685 28.5874597,6.0542719 28.0337703,5.04674906"/></g></g></svg>